<?xml version="1.0" encoding="utf-8"?>
<!-- Generator: Adobe Illustrator 24.1.0, SVG Export Plug-In . SVG Version: 6.00 Build 0)  -->
<svg version="1.1" id="Layer_1" xmlns="http://www.w3.org/2000/svg" xmlns:xlink="http://www.w3.org/1999/xlink" x="0px" y="0px"
	 viewBox="0 0 868 702.08" style="enable-background:new 0 0 868 702.08;" xml:space="preserve">
<style type="text/css">
	.st0{fill:#4FD1D9;}
	.st1{fill:#FFFFFF;}
	.st2{fill:#FFDD67;}
	.st3{fill:#65B1EF;}
	.st4{fill:#664E27;}
	.st5{fill:#917524;}
</style>
<g>
	<g>
		<circle class="st0" cx="144.67" cy="153.35" r="135.62"/>
		<path class="st1" d="M152.18,172.41v-49.24l-34.69,49.24L152.18,172.41L152.18,172.41z M152.18,225.68v-29H90.42v-24.18
			l65.46-91.49h24.3v91.4h18.74v24.27h-18.74v29H152.18z"/>
	</g>
	<g>
		<circle class="st0" cx="434" cy="153.35" r="135.62"/>
		<path class="st1" d="M434,103.53c-3.23,0-6.11,1.05-8.64,3.14s-4.49,5.85-5.89,11.26c-1.83,7.02-2.75,18.84-2.75,35.47
			c0,16.62,0.82,28.04,2.47,34.26c1.64,6.22,3.72,10.36,6.23,12.41c2.5,2.07,5.36,3.09,8.59,3.09c3.23,0,6.11-1.04,8.64-3.13
			c2.54-2.1,4.49-5.85,5.89-11.27c1.83-6.96,2.75-18.74,2.75-35.36c0-16.63-0.82-28.04-2.47-34.27c-1.64-6.21-3.72-10.37-6.23-12.46
			C440.09,104.58,437.23,103.53,434,103.53z M434,81.01c13.49,0,24.03,4.89,31.63,14.69c9.06,11.59,13.58,30.82,13.58,57.69
			c0,26.8-4.56,46.06-13.68,57.79c-7.54,9.66-18.05,14.49-31.53,14.49c-13.55,0-24.48-5.3-32.77-15.9
			c-8.29-10.6-12.44-29.49-12.44-56.68c0-26.67,4.56-45.87,13.68-57.6C410,85.85,420.51,81.01,434,81.01z"/>
	</g>
	<g>
		
			<ellipse transform="matrix(0.7071 -0.7071 0.7071 0.7071 103.4261 556.3879)" class="st0" cx="723.33" cy="153.35" rx="135.63" ry="135.63"/>
		<path class="st1" d="M730.85,172.41v-49.24l-34.69,49.24L730.85,172.41L730.85,172.41z M730.85,225.68v-29h-61.76v-24.18
			l65.46-91.49h24.3v91.4h18.74v24.27h-18.74v29H730.85z"/>
	</g>
</g>
<g>
</g>
<g>
	<g>
		
			<ellipse transform="matrix(0.7071 -0.7071 0.7071 0.7071 -267.0351 470.1471)" class="st2" cx="434" cy="557.41" rx="135.63" ry="135.63"/>
		<path class="st3" d="M504.92,582.75c0,38.77,52.69,38.78,52.69,0c0-28.32-26.34-55.95-26.34-55.95S504.92,554.45,504.92,582.75z"
			/>
		<circle class="st4" cx="463.38" cy="570.98" r="22.6"/>
		
			<ellipse transform="matrix(0.7071 -0.7071 0.7071 0.7071 -298.4759 421.3673)" class="st4" cx="359.4" cy="570.98" rx="22.6" ry="22.6"/>
		<path class="st5" d="M382.36,502.74c-14.63,12.35-34.01,17.55-52.86,14.16c-2.61-0.51-4.92,9.14-1.74,9.75
			c21.74,3.9,44.11-2.08,61-16.34C391.2,508.19,384.37,500.99,382.36,502.74z"/>
		<path class="st5" d="M493.28,516.22c-18.84,3.38-38.22-1.81-52.85-14.16c-2-1.76-8.84,5.45-6.38,7.57
			c16.87,14.25,39.24,20.25,61,16.34C498.22,525.35,495.9,515.7,493.28,516.22z"/>
		<path class="st4" d="M461.46,626.72c-26.07-7-54.47-1.93-76.54,13.63c-5.45,3.93,4.76,18.21,10.18,14.25
			c14.57-10.25,37.76-17.33,61.75-10.99C463.29,645.3,468.32,628.64,461.46,626.72z"/>
	</g>
</g>
<g>
	<path d="M201.6,356.4v15.99h-5.71v-43.85h10.91c4.48,0,7.75,0.5,9.8,1.51c2.05,1.01,3.63,2.48,4.72,4.42
		c1.09,1.94,1.64,4.11,1.64,6.5c0,2.81-0.73,5.42-2.2,7.86c-1.47,2.43-3.52,4.3-6.15,5.61c-2.63,1.31-6.19,1.96-10.69,1.96H201.6z
		 M201.6,352.02h2.46c3.52,0,6.14-0.46,7.85-1.37c1.71-0.92,3.03-2.23,3.96-3.95s1.38-3.58,1.38-5.58c0-2.53-0.82-4.53-2.47-6
		s-4.9-2.21-9.76-2.21h-3.42V352.02z"/>
	<path d="M250.77,365.33c-1.6,2.63-3.53,4.61-5.78,5.94c-2.25,1.33-4.32,2-6.2,2c-2.64,0-5.01-1.14-7.11-3.42s-3.15-5.74-3.15-10.37
		c0-3.65,0.7-6.92,2.09-9.79c1.4-2.87,3.26-5.14,5.6-6.81s5.23-2.5,8.68-2.5c1,0,2.5,0.1,4.52,0.31c0.3,0.04,0.75,0.08,1.35,0.14
		h5.27v22.29c0,3.81,0.4,6.9,1.21,9.27h-5.48C251.36,370.66,251.02,368.31,250.77,365.33z M250.79,359.04v-13.55
		c-1.87-0.49-3.6-0.74-5.21-0.74c-3.25,0-5.95,1.25-8.11,3.76c-2.16,2.51-3.24,5.92-3.24,10.24c0,3.13,0.59,5.49,1.77,7.09
		s2.52,2.39,4.03,2.39c1.64,0,3.45-0.83,5.43-2.49C247.45,364.09,249.23,361.85,250.79,359.04z"/>
	<path d="M285.86,365.29c-1.6,2.64-3.53,4.63-5.79,5.96c-2.25,1.34-4.32,2.01-6.21,2.01c-2.64,0-5.01-1.14-7.12-3.42
		s-3.15-5.74-3.15-10.37c0-3.65,0.7-6.92,2.09-9.79c1.4-2.87,3.26-5.14,5.6-6.81c2.34-1.67,5.23-2.5,8.68-2.5c1,0,2.5,0.1,4.52,0.31
		c0.3,0.04,0.75,0.08,1.35,0.14h5.27v22.32c0,5.31-0.07,8.56-0.21,9.73c-0.14,1.18-0.36,2.37-0.67,3.57
		c-0.75,2.81-2.47,5.02-5.16,6.64c-2.69,1.62-5.94,2.43-9.74,2.43c-3.83,0-7.7-0.98-11.63-2.94v-5.31c1.49,1.02,3.32,1.92,5.5,2.7
		c2.18,0.78,4.29,1.17,6.32,1.17c1.6,0,3.12-0.25,4.56-0.76c1.43-0.51,2.59-1.24,3.48-2.2c0.89-0.96,1.49-2.08,1.81-3.35
		c0.32-1.27,0.48-2.96,0.48-5.07V365.29z M285.86,359.04v-13.55c-1.87-0.49-3.6-0.74-5.21-0.74c-3.25,0-5.95,1.25-8.11,3.76
		c-2.16,2.51-3.24,5.92-3.24,10.24c0,3.13,0.59,5.49,1.77,7.09c1.18,1.59,2.52,2.39,4.03,2.39c1.64,0,3.45-0.83,5.43-2.49
		C282.52,364.09,284.29,361.85,285.86,359.04z"/>
	<path d="M325.73,370.29c-4.2,1.98-8.18,2.98-11.92,2.98c-2.84,0-5.39-0.71-7.63-2.12c-2.24-1.41-4.04-3.43-5.38-6.06
		s-2.02-5.43-2.02-8.43c0-2.88,0.64-5.65,1.92-8.3c1.28-2.65,3.07-4.72,5.37-6.2s4.86-2.22,7.69-2.22c3.75,0,6.76,1.33,9.03,4.01
		c2.27,2.67,3.41,6.79,3.41,12.36v1.13h-21.76c0,2.19,0.46,4.19,1.37,6.01c0.91,1.81,2.11,3.17,3.6,4.08s3.18,1.36,5.09,1.36
		c3.39,0,7.14-1.13,11.25-3.4V370.29z M304.73,353.51h15.74v-0.76c0-2.57-0.63-4.62-1.89-6.14c-1.26-1.52-2.95-2.28-5.06-2.28
		c-2.13,0-3.97,0.78-5.52,2.32C306.44,348.2,305.35,350.49,304.73,353.51z"/>
	<path d="M373.36,372.39h-5.25v-43.85h5.14l15.48,29.19l1.7,4.35h0.14l-0.14-4.35v-29.19h5.26v43.85h-5.26l-15.06-28.69l-2.12-4.61
		l0.11,4.55V372.39z"/>
	<path d="M416.64,373.26c-4.52,0-8.13-1.58-10.84-4.73c-2.71-3.16-4.07-7.13-4.07-11.94c0-4.8,1.36-8.78,4.07-11.92
		c2.71-3.15,6.32-4.72,10.84-4.72c4.5,0,8.1,1.57,10.81,4.72c2.71,3.15,4.07,7.12,4.07,11.92c0,4.8-1.36,8.78-4.07,11.94
		S421.13,373.26,416.64,373.26z M416.64,368.88c2.8,0,5.03-1.09,6.69-3.28c1.66-2.18,2.48-5.19,2.48-9.01c0-3.8-0.83-6.8-2.48-8.99
		c-1.66-2.18-3.88-3.28-6.69-3.28c-2.82,0-5.06,1.09-6.71,3.28c-1.66,2.19-2.48,5.18-2.48,8.99c0,3.82,0.83,6.83,2.48,9.01
		C411.58,367.79,413.82,368.88,416.64,368.88z"/>
	<path d="M464.77,371.12c-2.47,1.04-4.26,1.65-5.37,1.85c-1.11,0.2-2.19,0.3-3.22,0.3c-2.2,0-4.22-0.42-6.05-1.27
		c-1.83-0.85-3.21-2.1-4.14-3.76c-0.93-1.66-1.4-4.22-1.4-7.69v-12.71h-7.88v-4.38h7.88v-12.71h5.26v12.71h14.04v4.38h-14.04v12.63
		c0,2.54,0.3,4.34,0.9,5.38c0.6,1.04,1.41,1.81,2.42,2.3c1.01,0.49,2.2,0.73,3.57,0.73c2.54,0,5.22-0.8,8.03-2.4V371.12z"/>
	<path d="M509.87,372.39v-43.85h24.1v4.38h-18.39v14.92h16.64v4.38h-16.64v20.17H509.87z"/>
	<path d="M555.54,373.26c-4.52,0-8.13-1.58-10.84-4.73c-2.71-3.16-4.07-7.13-4.07-11.94c0-4.8,1.36-8.78,4.07-11.92
		c2.71-3.15,6.32-4.72,10.84-4.72c4.5,0,8.1,1.57,10.81,4.72c2.71,3.15,4.06,7.12,4.06,11.92c0,4.8-1.36,8.78-4.06,11.94
		C563.64,371.69,560.04,373.26,555.54,373.26z M555.54,368.88c2.8,0,5.03-1.09,6.69-3.28c1.65-2.18,2.48-5.19,2.48-9.01
		c0-3.8-0.83-6.8-2.48-8.99c-1.66-2.18-3.88-3.28-6.69-3.28c-2.82,0-5.06,1.09-6.71,3.28c-1.66,2.19-2.48,5.18-2.48,8.99
		c0,3.82,0.83,6.83,2.48,9.01C550.48,367.79,552.72,368.88,555.54,368.88z"/>
	<path d="M603.25,340.83v31.56h-5.25v-6.92c-1.7,2.6-3.58,4.55-5.65,5.85c-2.07,1.3-4.14,1.95-6.21,1.95
		c-1.85,0-3.54-0.49-5.07-1.48s-2.61-2.29-3.21-3.9c-0.6-1.61-0.9-4.75-0.9-9.42v-17.63h5.26v18.28c0,3.03,0.14,5.03,0.44,6
		c0.29,0.97,0.83,1.77,1.61,2.39c0.78,0.62,1.62,0.93,2.53,0.93c1.85,0,3.83-0.87,5.95-2.61s3.88-3.94,5.27-6.6v-18.39H603.25z"/>
	<path d="M612.01,372.39v-31.56h5.26v6.89c1.51-2.43,3.32-4.33,5.45-5.71s4.26-2.06,6.38-2.06c1.87,0,3.56,0.49,5.09,1.48
		c1.53,0.99,2.6,2.28,3.21,3.88c0.61,1.6,0.92,4.75,0.92,9.44v17.63h-5.26v-18.28c0-3.03-0.15-5.03-0.44-6
		c-0.29-0.97-0.83-1.77-1.61-2.39c-0.78-0.62-1.63-0.93-2.56-0.93c-1.85,0-3.83,0.88-5.95,2.63s-3.87,3.95-5.24,6.58v18.39H612.01z"
		/>
	<path d="M667.84,365.29c-1.6,2.64-3.53,4.63-5.79,5.96s-4.32,2.01-6.21,2.01c-2.64,0-5.01-1.14-7.12-3.42
		c-2.1-2.28-3.16-5.74-3.16-10.37c0-3.65,0.7-6.92,2.09-9.79c1.4-2.87,3.26-5.14,5.6-6.81c2.34-1.67,5.23-2.5,8.69-2.5
		c1,0,2.51,0.1,4.53,0.31c0.3,0.04,0.75,0.08,1.36,0.14v-14.04h5.26v45.6h-5.26V365.29z M667.84,359.04v-13.55
		c-1.87-0.49-3.6-0.74-5.21-0.74c-3.25,0-5.95,1.25-8.11,3.76c-2.16,2.51-3.24,5.92-3.24,10.24c0,3.13,0.59,5.49,1.77,7.09
		s2.53,2.39,4.03,2.39c1.64,0,3.45-0.83,5.44-2.49C664.5,364.09,666.27,361.85,667.84,359.04z"/>
</g>
<g>
</g>
<g>
</g>
<g>
</g>
<g>
</g>
<g>
</g>
<g>
</g>
<g>
</g>
<g>
</g>
<g>
</g>
<g>
</g>
<g>
</g>
<g>
</g>
<g>
</g>
<g>
</g>
<g>
</g>
</svg>
