<?xml version="1.0" encoding="utf-8"?>
<!-- Generator: Adobe Illustrator 24.1.0, SVG Export Plug-In . SVG Version: 6.00 Build 0)  -->
<svg version="1.1" id="Layer_1" xmlns="http://www.w3.org/2000/svg" xmlns:xlink="http://www.w3.org/1999/xlink" x="0px" y="0px"
	 viewBox="0 0 500 100" style="enable-background:new 0 0 500 100;" xml:space="preserve">
<style type="text/css">
	.st0{display:none;}
</style>
<g class="st0">
</g>
<g>
	<path d="M57.79,46.26c-0.04,0.06-0.08,0.1-0.12,0.13c-0.04,0.03-0.09,0.04-0.15,0.04c-0.07,0-0.15-0.03-0.24-0.1
		c-0.09-0.07-0.21-0.14-0.34-0.23c-0.14-0.08-0.3-0.16-0.5-0.23c-0.19-0.07-0.43-0.1-0.71-0.1c-0.26,0-0.49,0.04-0.69,0.1
		c-0.2,0.07-0.36,0.17-0.5,0.29c-0.13,0.12-0.23,0.26-0.3,0.42c-0.07,0.16-0.1,0.34-0.1,0.52c0,0.24,0.06,0.44,0.18,0.6
		s0.27,0.29,0.47,0.4c0.19,0.11,0.41,0.21,0.66,0.29c0.25,0.08,0.5,0.17,0.76,0.26c0.26,0.09,0.51,0.19,0.76,0.3
		s0.47,0.25,0.66,0.42c0.19,0.17,0.35,0.37,0.47,0.62c0.12,0.24,0.18,0.54,0.18,0.9c0,0.38-0.06,0.73-0.19,1.06
		s-0.31,0.62-0.56,0.86c-0.25,0.24-0.55,0.44-0.91,0.58c-0.36,0.14-0.77,0.21-1.22,0.21c-0.56,0-1.07-0.1-1.52-0.3
		c-0.46-0.2-0.85-0.47-1.17-0.82l0.34-0.55c0.03-0.04,0.07-0.08,0.12-0.11c0.05-0.03,0.1-0.04,0.15-0.04c0.05,0,0.11,0.02,0.18,0.06
		c0.07,0.04,0.14,0.09,0.22,0.16s0.18,0.13,0.29,0.21c0.11,0.08,0.23,0.15,0.37,0.21c0.14,0.06,0.29,0.12,0.47,0.16
		c0.18,0.04,0.37,0.06,0.59,0.06c0.28,0,0.52-0.04,0.74-0.11c0.22-0.08,0.4-0.18,0.55-0.32c0.15-0.14,0.26-0.3,0.34-0.49
		c0.08-0.19,0.12-0.41,0.12-0.64c0-0.26-0.06-0.47-0.18-0.64c-0.12-0.17-0.27-0.3-0.47-0.42c-0.19-0.11-0.41-0.21-0.66-0.29
		c-0.25-0.08-0.5-0.16-0.76-0.24c-0.26-0.08-0.51-0.18-0.76-0.29s-0.47-0.25-0.66-0.42c-0.19-0.17-0.35-0.39-0.46-0.65
		s-0.18-0.58-0.18-0.96c0-0.3,0.06-0.6,0.18-0.88s0.29-0.54,0.52-0.76c0.23-0.22,0.5-0.4,0.83-0.53c0.33-0.13,0.71-0.2,1.14-0.2
		c0.48,0,0.92,0.08,1.31,0.23c0.39,0.15,0.74,0.37,1.04,0.66L57.79,46.26z"/>
	<path d="M69.05,49.22c0,0.64-0.1,1.23-0.31,1.77c-0.2,0.54-0.49,1-0.86,1.39c-0.37,0.39-0.82,0.69-1.34,0.9
		c-0.52,0.21-1.1,0.32-1.73,0.32c-0.63,0-1.21-0.11-1.73-0.32s-0.97-0.52-1.34-0.9c-0.37-0.39-0.66-0.85-0.86-1.39
		s-0.31-1.13-0.31-1.77s0.1-1.23,0.31-1.77s0.49-1,0.86-1.39s0.82-0.69,1.34-0.91c0.52-0.22,1.1-0.32,1.73-0.32
		c0.63,0,1.21,0.11,1.73,0.32c0.52,0.22,0.97,0.52,1.34,0.91s0.66,0.85,0.86,1.39C68.95,47.98,69.05,48.57,69.05,49.22z
		 M67.86,49.22c0-0.53-0.07-1-0.22-1.42c-0.14-0.42-0.35-0.78-0.61-1.07c-0.26-0.29-0.58-0.51-0.96-0.67
		c-0.38-0.16-0.8-0.23-1.26-0.23c-0.46,0-0.88,0.08-1.25,0.23c-0.38,0.16-0.7,0.38-0.96,0.67c-0.27,0.29-0.47,0.65-0.62,1.07
		c-0.14,0.42-0.22,0.89-0.22,1.42c0,0.53,0.07,1,0.22,1.42c0.14,0.42,0.35,0.77,0.62,1.06s0.59,0.51,0.96,0.67s0.79,0.23,1.25,0.23
		c0.46,0,0.88-0.08,1.26-0.23s0.7-0.38,0.96-0.67s0.47-0.64,0.61-1.06C67.78,50.22,67.86,49.75,67.86,49.22z"/>
	<path d="M73.08,45.86v3.01h3.53v0.95h-3.53v3.7h-1.16v-8.6h5.3v0.95H73.08z"/>
	<path d="M85.71,45.89h-2.78v7.62h-1.16v-7.62h-2.79v-0.98h6.73V45.89z"/>
	<path d="M99.33,44.92l-2.68,8.6H95.6l-2.18-6.56c-0.02-0.06-0.04-0.13-0.06-0.2c-0.02-0.07-0.04-0.15-0.06-0.23
		c-0.02,0.08-0.04,0.16-0.06,0.23c-0.02,0.07-0.04,0.14-0.06,0.2L91,53.51h-1.04l-2.68-8.6h0.97c0.1,0,0.19,0.03,0.26,0.08
		c0.07,0.05,0.11,0.12,0.13,0.2l1.78,5.98c0.03,0.11,0.05,0.22,0.08,0.35c0.03,0.12,0.05,0.26,0.08,0.4
		c0.03-0.14,0.06-0.27,0.09-0.4c0.03-0.13,0.06-0.24,0.1-0.35l2.02-5.98c0.02-0.07,0.07-0.13,0.14-0.19
		c0.07-0.06,0.15-0.09,0.25-0.09h0.34c0.1,0,0.19,0.03,0.25,0.08c0.06,0.05,0.11,0.12,0.14,0.2l2.02,5.98
		c0.04,0.1,0.07,0.22,0.1,0.34c0.03,0.12,0.06,0.25,0.09,0.38c0.02-0.13,0.04-0.26,0.07-0.38c0.02-0.12,0.05-0.23,0.08-0.34
		l1.78-5.98c0.02-0.07,0.06-0.14,0.14-0.19c0.07-0.06,0.15-0.08,0.25-0.08H99.33z"/>
	<path d="M108.28,53.51h-0.9c-0.1,0-0.19-0.03-0.25-0.08c-0.06-0.05-0.11-0.12-0.14-0.2l-0.8-2.08h-3.86l-0.8,2.08
		c-0.02,0.07-0.07,0.14-0.14,0.19c-0.07,0.06-0.15,0.08-0.25,0.08h-0.9l3.44-8.6h1.18L108.28,53.51z M105.86,50.32l-1.35-3.5
		c-0.04-0.1-0.08-0.23-0.13-0.36c-0.04-0.14-0.09-0.28-0.13-0.44c-0.08,0.32-0.17,0.59-0.26,0.81l-1.35,3.49H105.86z"/>
	<path d="M116.97,53.51h-1.03c-0.21,0-0.37-0.08-0.47-0.25l-2.23-3.07c-0.07-0.1-0.14-0.17-0.22-0.21s-0.2-0.06-0.36-0.06h-0.88
		v3.59h-1.16v-8.6h2.43c0.54,0,1.01,0.06,1.41,0.17c0.4,0.11,0.72,0.27,0.98,0.48s0.45,0.46,0.57,0.75
		c0.12,0.29,0.19,0.62,0.19,0.99c0,0.3-0.05,0.59-0.14,0.85c-0.1,0.26-0.24,0.5-0.42,0.71c-0.18,0.21-0.4,0.39-0.67,0.54
		c-0.26,0.15-0.56,0.26-0.89,0.34c0.15,0.08,0.28,0.21,0.38,0.37L116.97,53.51z M113,49.08c0.34,0,0.63-0.04,0.89-0.12
		c0.26-0.08,0.47-0.2,0.65-0.35c0.17-0.15,0.3-0.33,0.39-0.54c0.09-0.21,0.13-0.44,0.13-0.69c0-0.51-0.17-0.9-0.5-1.16
		c-0.34-0.26-0.84-0.39-1.51-0.39h-1.27v3.25H113z"/>
	<path d="M124.64,52.57l-0.01,0.95h-5.3v-8.6h5.3v0.95h-4.13v2.86h3.35v0.91h-3.35v2.93H124.64z"/>
	<path d="M137.04,52.57l-0.01,0.95h-5.3v-8.6h5.3v0.95h-4.13v2.86h3.35v0.91h-3.35v2.93H137.04z"/>
	<path d="M146.83,44.92v8.6h-0.58c-0.09,0-0.17-0.02-0.23-0.05c-0.06-0.03-0.12-0.09-0.18-0.16l-4.97-6.48
		c0.01,0.1,0.01,0.2,0.02,0.29s0.01,0.19,0.01,0.27v6.13h-1.02v-8.6h0.6c0.05,0,0.1,0,0.13,0.01c0.04,0.01,0.07,0.02,0.1,0.03
		c0.03,0.01,0.06,0.03,0.08,0.06c0.03,0.03,0.06,0.06,0.09,0.1l4.97,6.47c-0.01-0.1-0.02-0.21-0.02-0.3
		c-0.01-0.1-0.01-0.19-0.01-0.28v-6.09H146.83z"/>
	<path d="M157.21,49.38v3.3c-0.43,0.31-0.89,0.54-1.38,0.7c-0.49,0.15-1.03,0.23-1.61,0.23c-0.69,0-1.32-0.11-1.87-0.32
		c-0.56-0.21-1.03-0.51-1.42-0.9c-0.39-0.38-0.7-0.85-0.91-1.39s-0.32-1.13-0.32-1.78c0-0.66,0.1-1.25,0.31-1.79s0.5-1,0.88-1.39
		c0.38-0.39,0.84-0.69,1.39-0.9c0.54-0.21,1.15-0.32,1.82-0.32c0.34,0,0.66,0.02,0.95,0.07c0.29,0.05,0.56,0.12,0.81,0.22
		c0.25,0.09,0.48,0.21,0.69,0.34c0.21,0.13,0.41,0.29,0.59,0.45l-0.33,0.53c-0.05,0.08-0.12,0.13-0.2,0.15s-0.17,0-0.27-0.06
		c-0.1-0.06-0.21-0.12-0.33-0.2s-0.28-0.16-0.45-0.23c-0.18-0.07-0.39-0.14-0.63-0.19c-0.24-0.05-0.53-0.08-0.86-0.08
		c-0.48,0-0.92,0.08-1.31,0.24c-0.39,0.16-0.73,0.38-1,0.68c-0.28,0.29-0.49,0.65-0.64,1.07s-0.22,0.89-0.22,1.41
		c0,0.54,0.08,1.02,0.23,1.45c0.15,0.43,0.37,0.79,0.66,1.09c0.29,0.3,0.63,0.53,1.04,0.68c0.41,0.16,0.87,0.23,1.37,0.23
		c0.4,0,0.75-0.04,1.06-0.13s0.61-0.21,0.91-0.38v-1.89h-1.34c-0.08,0-0.14-0.02-0.18-0.07c-0.05-0.04-0.07-0.1-0.07-0.16v-0.66
		H157.21z"/>
	<path d="M161.36,53.51h-1.16v-8.6h1.16V53.51z"/>
	<path d="M171.72,44.92v8.6h-0.58c-0.09,0-0.17-0.02-0.23-0.05c-0.06-0.03-0.12-0.09-0.18-0.16l-4.97-6.48
		c0.01,0.1,0.01,0.2,0.02,0.29s0.01,0.19,0.01,0.27v6.13h-1.02v-8.6h0.6c0.05,0,0.1,0,0.13,0.01c0.04,0.01,0.07,0.02,0.1,0.03
		c0.03,0.01,0.06,0.03,0.08,0.06c0.03,0.03,0.06,0.06,0.09,0.1l4.97,6.47c-0.01-0.1-0.02-0.21-0.02-0.3
		c-0.01-0.1-0.01-0.19-0.01-0.28v-6.09H171.72z"/>
	<path d="M180.42,52.57l-0.01,0.95h-5.3v-8.6h5.3v0.95h-4.13v2.86h3.35v0.91h-3.35v2.93H180.42z"/>
	<path d="M188.55,52.57l-0.01,0.95h-5.3v-8.6h5.3v0.95h-4.13v2.86h3.35v0.91h-3.35v2.93H188.55z"/>
	<path d="M197.73,53.51h-1.03c-0.21,0-0.37-0.08-0.47-0.25L194,50.2c-0.07-0.1-0.14-0.17-0.22-0.21s-0.2-0.06-0.36-0.06h-0.88v3.59
		h-1.16v-8.6h2.43c0.54,0,1.01,0.06,1.41,0.17c0.4,0.11,0.72,0.27,0.98,0.48s0.45,0.46,0.57,0.75c0.12,0.29,0.19,0.62,0.19,0.99
		c0,0.3-0.05,0.59-0.14,0.85c-0.1,0.26-0.24,0.5-0.42,0.71c-0.18,0.21-0.4,0.39-0.67,0.54c-0.26,0.15-0.56,0.26-0.89,0.34
		c0.15,0.08,0.28,0.21,0.38,0.37L197.73,53.51z M193.76,49.08c0.34,0,0.63-0.04,0.89-0.12c0.26-0.08,0.47-0.2,0.65-0.35
		c0.17-0.15,0.3-0.33,0.39-0.54c0.09-0.21,0.13-0.44,0.13-0.69c0-0.51-0.17-0.9-0.5-1.16c-0.34-0.26-0.84-0.39-1.51-0.39h-1.27v3.25
		H193.76z"/>
	<path d="M201.26,53.51h-1.16v-8.6h1.16V53.51z"/>
	<path d="M211.62,44.92v8.6h-0.58c-0.09,0-0.17-0.02-0.23-0.05c-0.06-0.03-0.12-0.09-0.18-0.16l-4.97-6.48
		c0.01,0.1,0.01,0.2,0.02,0.29s0.01,0.19,0.01,0.27v6.13h-1.02v-8.6h0.6c0.05,0,0.1,0,0.13,0.01c0.04,0.01,0.07,0.02,0.1,0.03
		c0.03,0.01,0.06,0.03,0.08,0.06c0.03,0.03,0.06,0.06,0.09,0.1l4.97,6.47c-0.01-0.1-0.02-0.21-0.02-0.3
		c-0.01-0.1-0.01-0.19-0.01-0.28v-6.09H211.62z"/>
	<path d="M222,49.38v3.3c-0.43,0.31-0.89,0.54-1.38,0.7c-0.49,0.15-1.03,0.23-1.61,0.23c-0.69,0-1.32-0.11-1.87-0.32
		c-0.56-0.21-1.03-0.51-1.42-0.9c-0.39-0.38-0.7-0.85-0.91-1.39s-0.32-1.13-0.32-1.78c0-0.66,0.1-1.25,0.31-1.79s0.5-1,0.88-1.39
		c0.38-0.39,0.84-0.69,1.39-0.9c0.54-0.21,1.15-0.32,1.82-0.32c0.34,0,0.66,0.02,0.95,0.07c0.29,0.05,0.56,0.12,0.81,0.22
		c0.25,0.09,0.48,0.21,0.69,0.34c0.21,0.13,0.41,0.29,0.59,0.45l-0.33,0.53c-0.05,0.08-0.12,0.13-0.2,0.15s-0.17,0-0.27-0.06
		c-0.1-0.06-0.21-0.12-0.33-0.2s-0.28-0.16-0.45-0.23c-0.18-0.07-0.39-0.14-0.63-0.19c-0.24-0.05-0.53-0.08-0.86-0.08
		c-0.48,0-0.92,0.08-1.31,0.24c-0.39,0.16-0.73,0.38-1,0.68c-0.28,0.29-0.49,0.65-0.64,1.07s-0.22,0.89-0.22,1.41
		c0,0.54,0.08,1.02,0.23,1.45c0.15,0.43,0.37,0.79,0.66,1.09c0.29,0.3,0.63,0.53,1.04,0.68c0.41,0.16,0.87,0.23,1.37,0.23
		c0.4,0,0.75-0.04,1.06-0.13s0.61-0.21,0.91-0.38v-1.89h-1.34c-0.08,0-0.14-0.02-0.18-0.07c-0.05-0.04-0.07-0.1-0.07-0.16v-0.66H222
		z"/>
</g>
<g>
	<path d="M291.74,40.67c0.08-0.18,0.18-0.37,0.3-0.56c0.23-0.42,0.43-0.78,0.59-1.08c2.65-0.84,5.12-1.25,7.43-1.25
		c0.73,0,1.43,0.08,2.1,0.23c0.63,0.15,1.15,0.41,1.55,0.79c0.39,0.36,0.7,0.9,0.91,1.62c0.23,0.72,0.4,1.59,0.53,2.61l0.27,2.11
		l0.79,5.45c0.31,2.23,0.64,3.95,0.98,5.18c-2.48,0.73-4.25,1.34-5.29,1.83c0-0.88-0.12-3.28-0.38-7.2
		c-1.46-0.09-2.45-0.14-2.98-0.14c-0.56,0.02-1.3,0.06-2.22,0.11s-1.78,0.1-2.57,0.15c-2.97,3.27-5.36,5.44-7.18,6.5
		c-1.84,1.07-3.56,1.61-5.17,1.61c-1.56,0-2.84-0.39-3.84-1.17c-1.01-0.77-1.51-1.58-1.51-2.43c0-0.95,0.53-2.02,1.58-3.19
		c1.04-1.16,2.42-2.18,4.14-3.06c1.71-0.87,3.75-1.3,6.11-1.3c0.56,0,1.1,0.02,1.61,0.05s1.09,0.08,1.73,0.15s1.3,0.15,1.96,0.25
		l2.36-3.41c0.46-0.67,1.38-2.21,2.77-4.61c-0.92,0.02-1.94,0.1-3.06,0.23S292.95,40.45,291.74,40.67z M281.9,50.98
		c-0.61,0.87-0.91,1.73-0.91,2.59c0,0.9,0.3,1.55,0.9,1.97s1.32,0.62,2.14,0.62c0.63,0,1.5-0.08,2.6-0.25
		c0.04-0.07,0.5-0.57,1.37-1.5c0.8-0.84,2-2.2,3.62-4.05C287.76,50.49,284.52,50.7,281.9,50.98z M295.28,48.22
		c0.6,0.07,1.45,0.21,2.54,0.4s2.28,0.43,3.56,0.7c-0.3-2.48-0.79-5.13-1.45-7.93C299.07,42.94,297.52,45.22,295.28,48.22z"/>
	<path d="M311.38,43.68l1.12-0.34v1.54c0.22-0.13,0.61-0.36,1.17-0.68c0.19-0.1,0.37-0.21,0.55-0.33l1-0.6
		c0.73,0.1,1.28,0.23,1.66,0.38c0.37,0.15,0.67,0.37,0.91,0.67c0.23,0.29,0.39,0.58,0.48,0.88c0.08,0.27,0.12,0.71,0.12,1.32
		c0,0.73-0.07,1.6-0.21,2.6c-0.15,1.06-0.23,1.98-0.25,2.74l-2.17,1.38l-0.33,0.22c-0.62,0.43-1.14,0.72-1.54,0.88
		c0.45-2.16,0.68-3.86,0.68-5.09c0-1.48-0.32-2.77-0.97-3.89c-0.02,0.03-0.16,0.17-0.42,0.42l-0.21,0.23l-0.48,0.48l0.06,6.74
		c-1.27,0.04-2.6,0.23-3.97,0.56c0-0.41,0-0.68,0.01-0.81c0.02-0.48,0.02-0.77,0.02-0.87v-0.27c-0.02-0.33-0.04-0.56-0.04-0.69V48.4
		c0-1.4-0.02-2.65-0.07-3.76c0.1-0.03,0.22-0.07,0.35-0.11s0.28-0.09,0.45-0.15s0.35-0.12,0.53-0.19L311.38,43.68z"/>
	<path d="M319.44,46.66l0.32-1.46c1.57-0.26,3.37-0.87,5.4-1.83v2.06l-0.04,0.88c0,0.12,0,0.22,0.01,0.32
		c0.01,0.26,0.01,0.61,0.01,1.07c0,0.2,0,0.37,0.01,0.49l0.08,2.06c0.02,0.45,0.07,1.45,0.18,3c-1.61,0.28-3.01,0.49-4.2,0.63
		c0.11-0.98,0.16-2.45,0.16-4.39l-0.05-2.94c-0.33,0.13-0.68,0.2-1.05,0.2C320.01,46.74,319.73,46.71,319.44,46.66z M322.91,38.02
		c0.59,0,1.09,0.2,1.52,0.61c0.42,0.41,0.63,0.92,0.63,1.55c0,0.59-0.21,1.09-0.63,1.51c-0.43,0.42-0.94,0.63-1.52,0.63
		s-1.09-0.21-1.51-0.63c-0.42-0.41-0.63-0.92-0.63-1.51s0.21-1.1,0.63-1.52C321.82,38.23,322.32,38.02,322.91,38.02z"/>
	<path d="M327.67,45.75v-1.44c1.03-0.19,2.29-0.5,3.77-0.95l0.05,1.86c0.81-0.83,1.41-1.45,1.8-1.86c2.07,0.38,3.24,1.02,3.5,1.92
		c0.49-0.6,1.09-1.24,1.78-1.92c0.98,0.03,1.83,0.2,2.53,0.52c0.69,0.3,1.16,0.7,1.42,1.17s0.39,1.14,0.39,1.98
		c0,0.65-0.05,1.46-0.14,2.44c-0.06,0.69-0.09,1.16-0.09,1.43c0,0.2,0.02,0.6,0.06,1.21c-0.93,0.85-2.22,1.73-3.88,2.64
		c0.09-0.6,0.17-1.61,0.23-3.04l0.02-0.27c0.04-0.72,0.06-1.28,0.06-1.69c0-1.09-0.11-1.89-0.33-2.4c-0.23-0.53-0.59-1.04-1.1-1.51
		c-0.33,0.83-0.54,1.32-0.62,1.49c0.03,0.62,0.05,1.45,0.05,2.47c0,1.27-0.03,2.38-0.09,3.34c-1.81,0.3-3.01,0.58-3.59,0.83
		c0.01-0.52,0.01-0.98,0.01-1.38c0-3.52-0.41-5.71-1.22-6.6l-0.75,1.34l0.15,5.95c-2.17,0.21-3.62,0.38-4.34,0.52
		C327.57,51.31,327.67,48.63,327.67,45.75z"/>
	<path d="M348.25,43.36c0.12,0.03,0.82,0.17,2.12,0.41c1.17,0.21,1.95,0.38,2.32,0.49c0.37,0.13,0.71,0.34,1.04,0.63
		s0.57,0.7,0.74,1.22c0.16,0.52,0.25,1.21,0.25,2.1l-0.06,3.45c0,0.41,0.04,0.88,0.12,1.43c-0.73,0.12-2.06,0.45-4,1.01
		c0.14-1.07,0.21-2.54,0.21-4.42c-0.13,0.22-0.52,0.68-1.16,1.38s-1.55,1.66-2.74,2.88c-0.91-0.24-1.62-0.48-2.11-0.7
		c-0.03-0.3-0.09-0.76-0.19-1.38c-0.13-0.98-0.2-1.86-0.2-2.65c0-1.14,0.24-2.1,0.71-2.88C345.77,45.56,346.75,44.57,348.25,43.36z
		 M348.2,46.19l0.26,4.61c0.43-0.48,0.86-1.01,1.28-1.61s0.78-1.16,1.08-1.68C350.39,46.88,349.51,46.45,348.2,46.19z"/>
	<path d="M357.26,39.18l2.3-0.59l1.73-0.47l-0.49,8.65l-0.18,3.4c0.58,0.41,1.23,0.83,1.96,1.25v0.08
		c-0.93,0.87-1.71,1.72-2.34,2.57c-1.08-0.23-1.88-0.69-2.41-1.4s-0.8-1.66-0.8-2.85c0-0.48,0.02-1.26,0.07-2.34
		C357.14,46.43,357.2,43.67,357.26,39.18z"/>
	<path d="M373.91,45.17l1.92-3.35c1.97-1.5,3.99-2.55,6.06-3.16c2.08-0.6,3.87-0.9,5.37-0.9c1.2,0,2.35,0.26,3.46,0.77
		c1.12,0.52,1.96,1.18,2.51,1.98c0.55,0.8,0.82,1.54,0.82,2.2c0,0.75-0.3,1.65-0.9,2.7c-0.62,1.06-1.86,2.1-3.74,3.12
		c-1.9,1.04-4.26,1.77-7.08,2.2c2.37,1.41,4.2,2.92,5.5,4.55c-0.16,0.55-0.7,2.04-1.63,4.49c-0.59-0.54-1.21-1.1-1.88-1.67
		s-1.35-1.15-2.05-1.73s-1.91-1.56-3.61-2.95c-1.88,2.67-3.37,4.01-4.45,4.01c-0.61,0-1.28-0.39-2-1.18
		c-0.2-0.23-0.46-0.45-0.76-0.67c0.16-0.34,0.44-0.86,0.82-1.55c0.3-0.55,0.55-1.02,0.73-1.39l3.2,1.65
		c0.63-0.73,1.45-1.78,2.45-3.14c0.91-1.23,1.89-2.66,2.94-4.29l3.23-5.04l-0.88-0.02c-0.74,0-1.51,0.07-2.31,0.22
		s-1.63,0.36-2.5,0.64C377.37,43.23,375.63,44.07,373.91,45.17z M387.51,42.29c-1.32,1.34-3.3,3.74-5.95,7.18
		c2.51-0.27,5.18-1.98,8-5.12C389.17,43.46,388.48,42.77,387.51,42.29z"/>
	<path d="M394.33,46.66l0.32-1.46c1.57-0.26,3.37-0.87,5.4-1.83v2.06l-0.04,0.88c0,0.12,0,0.22,0.01,0.32
		c0.01,0.26,0.01,0.61,0.01,1.07c0,0.2,0,0.37,0.01,0.49l0.08,2.06c0.02,0.45,0.07,1.45,0.18,3c-1.61,0.28-3.01,0.49-4.2,0.63
		c0.11-0.98,0.16-2.45,0.16-4.39l-0.05-2.94c-0.33,0.13-0.68,0.2-1.05,0.2C394.89,46.74,394.61,46.71,394.33,46.66z M397.8,38.02
		c0.59,0,1.09,0.2,1.52,0.61c0.42,0.41,0.63,0.92,0.63,1.55c0,0.59-0.21,1.09-0.63,1.51c-0.43,0.42-0.94,0.63-1.52,0.63
		s-1.09-0.21-1.51-0.63c-0.42-0.41-0.63-0.92-0.63-1.51s0.21-1.1,0.63-1.52C396.7,38.23,397.2,38.02,397.8,38.02z"/>
	<path d="M405.54,43.38c2.32,0,4,0.32,5.04,0.97c1.02,0.65,1.54,1.64,1.54,2.99c0,0.62-0.05,1.41-0.14,2.39l-0.28,3.3
		c-0.05,0.99-0.11,1.71-0.2,2.14c-0.08,0.41-0.31,0.94-0.69,1.58c-0.37,0.62-0.86,1.24-1.48,1.84c-0.65,0.62-1.09,0.98-1.32,1.1
		c-0.28,0.13-0.71,0.2-1.28,0.2c-1.79,0-3.15-0.43-4.08-1.3l-0.2-2.43l1.85-1.76c0.62,1.07,1.92,1.71,3.89,1.92l-0.06-3.02
		c-0.04-1.79-0.07-2.8-0.09-3.04c-0.53,0.73-1.3,1.53-2.32,2.38c-0.41,0.36-0.68,0.64-0.8,0.84c-0.62-0.07-1.38-0.31-2.27-0.71
		c0,0.01-0.06-0.26-0.19-0.81c-0.22-0.88-0.33-1.69-0.33-2.43c0-0.91,0.14-1.63,0.43-2.18c0.27-0.53,0.74-1.2,1.41-1.99
		C404.8,44.42,405.32,43.75,405.54,43.38z M405.82,45.78v5.2c0.3-0.18,0.79-0.79,1.44-1.83c0.66-1.05,1.04-1.71,1.11-1.97
		C407.42,46.42,406.57,45.95,405.82,45.78z"/>
	<path d="M414.03,39.25l3.96-1.24l-0.12,4.45v2.88l1.89-1.96h0.14c1.59,0.49,2.64,1.01,3.15,1.56c0.51,0.55,0.76,1.51,0.76,2.86
		c0,0.48-0.07,1.3-0.22,2.48c-0.09,0.62-0.16,1.51-0.21,2.66c-1.14,0.95-2.41,1.84-3.82,2.7c0.34-2.78,0.54-4.57,0.6-5.36
		l-0.43-2.78c-0.04-0.17-0.27-0.86-0.68-2.05c-0.54,0.71-0.93,1.19-1.17,1.44v2.96c0,0.04-0.01,0.32-0.02,0.83
		c-0.02,0.48-0.04,0.86-0.04,1.16c0,0.24,0.02,0.7,0.06,1.38c-0.84,0.03-2.23,0.19-4.2,0.48c0.12-0.95,0.2-2.21,0.25-3.76
		C413.96,48.4,414,44.83,414.03,39.25z"/>
	<path d="M426.33,43.21l-0.01-0.95c0.09-0.02,0.46-0.05,1.11-0.12c1.1-0.12,1.92-0.21,2.46-0.29c0.01,0.12,0.01,0.26,0.01,0.4
		c0,0.25-0.03,0.66-0.08,1.24c0.25,0.02,0.75,0.04,1.49,0.04c0.51,0,0.85-0.01,1.02-0.04c-0.21,1.27-0.35,2.01-0.41,2.24
		c-0.52,0.08-1.25,0.14-2.17,0.18c-0.05,1.16-0.08,1.95-0.08,2.37c0,0.68,0.16,1.22,0.48,1.63c0.31,0.4,0.86,0.71,1.63,0.94
		l-2.03,3.07c-2.55-0.7-3.83-2.02-3.83-3.96c0-0.32,0.05-0.94,0.16-1.85c0.11-0.95,0.17-1.58,0.19-1.91
		c-0.36,0.01-0.76,0.05-1.2,0.13l1.24-2.13v-0.23L426.33,43.21z"/>
	<path d="M436.81,43.29c0.05,0,0.72,0.05,2.02,0.14c1.39,0.09,2.75,0.13,4.07,0.13c-0.01,0.03-0.09,0.32-0.26,0.88
		c-0.27,0.91-0.41,1.58-0.42,2.02c-0.91-0.36-2.69-0.65-5.33-0.88c0.38,1.11,1.6,1.66,3.68,1.66c1.09,0,1.84,0.05,2.25,0.14
		c0.39,0.09,0.7,0.29,0.93,0.59c0.22,0.29,0.33,0.71,0.33,1.25c0,0.59-0.12,1.16-0.38,1.72c-0.27,0.56-0.57,1.02-0.93,1.36
		c-0.36,0.35-0.99,0.67-1.9,0.95c-0.9,0.28-1.84,0.42-2.84,0.42c-1.72,0-3.15-0.35-4.3-1.05c0.14-0.47,0.36-1.04,0.64-1.72
		c1.22,0.53,2.6,0.8,4.14,0.8c0.81,0,1.56-0.23,2.25-0.68c-0.48-0.34-1-0.5-1.56-0.5c-0.12,0-0.26,0-0.42,0.01
		c-0.39,0.02-0.61,0.02-0.67,0.02c-1.54,0-2.71-0.23-3.52-0.69c-0.8-0.45-1.21-1.24-1.21-2.37c0-0.89,0.24-1.64,0.73-2.24
		C434.59,44.66,435.49,44,436.81,43.29z"/>
</g>
<g>
	<path d="M181,73.5c11.85,0.35,23.79-0.38,35.18-3.7c5.68-1.65,11.19-3.95,16.37-6.88c5.19-2.93,10.04-6.48,14.54-10.45
		c1.11-1.01,2.26-1.98,3.32-3.05c1.06-1.06,1.98-2.27,2.96-3.4c1.94-2.3,3.84-4.64,5.88-6.88c0.99-1.15,2.07-2.21,3.12-3.32
		c1.07-1.08,2.18-2.13,3.3-3.17c1.17-0.98,2.3-2.03,3.52-2.96l1.84-1.39l0.92-0.7l0.97-0.64c5.12-3.45,10.76-6.21,16.65-8.18
		l4.47-1.31c0.74-0.24,1.5-0.41,2.26-0.57l2.27-0.5l2.28-0.5c0.76-0.15,1.53-0.25,2.29-0.36c1.54-0.18,3.09-0.26,4.65-0.02
		c1.4,0.22,2.36,1.53,2.15,2.93c-0.14,0.92-0.76,1.65-1.56,1.98l-0.17,0.07c-1.42,0.58-2.86,0.84-4.31,1
		c-0.73,0.08-1.46,0.09-2.19,0.18l-2.16,0.3l-2.17,0.3c-0.73,0.09-1.45,0.2-2.16,0.36l-4.28,0.89c-5.64,1.42-11.17,3.4-16.32,6.21
		c-5.18,2.77-9.97,6.34-14.36,10.4c-2.22,2-4.34,4.14-6.49,6.25c-1.07,1.07-2.18,2.09-3.22,3.17c-1,1.13-2.08,2.18-3.13,3.26
		c-4.26,4.27-8.93,8.16-14.03,11.48c-5.09,3.32-10.6,6.04-16.35,8.12c-11.54,4.17-23.86,5.69-36.03,6.1
		c-1.38,0.05-2.54-1.04-2.58-2.42c-0.05-1.38,1.04-2.54,2.42-2.58c0.05,0,0.1,0,0.15,0L181,73.5z"/>
</g>
<g>
	<path d="M307.78,89.49c-3.22,0.71-6.39,0.22-9.48-0.53c-3.1-0.73-6.16-1.65-9.14-2.8c-2.97-1.18-5.86-2.54-8.6-4.15
		c-2.74-1.61-5.34-3.43-7.78-5.42c-4.9-3.97-9.04-8.65-12.84-13.47c-3.8-4.82-7.23-9.88-11.49-14.24
		c-4.24-4.36-8.99-8.26-14.2-11.41c-5.2-3.17-10.85-5.55-16.7-7.15c-5.85-1.63-11.88-2.42-17.92-2.76
		c-6.04-0.29-12.1-0.15-18.15,0.44c-1.38,0.13-2.61-0.88-2.74-2.26c-0.13-1.38,0.88-2.61,2.26-2.74c0.16-0.02,0.33-0.01,0.49,0
		c6.16,0.6,12.31,1.15,18.4,2.12c6.09,0.93,12.13,2.29,17.96,4.23c5.83,1.95,11.42,4.55,16.59,7.82c5.18,3.26,9.92,7.17,14.27,11.45
		c4.41,4.25,8.15,9.14,12.41,13.47c4.18,4.41,8.8,8.33,13.83,11.47c5.04,3.14,10.47,5.45,16.08,7.04c2.81,0.78,5.67,1.39,8.55,1.88
		c2.9,0.45,5.78,0.72,8.63,2.03l0.09,0.04c1.31,0.61,1.89,2.16,1.28,3.48C309.24,88.8,308.55,89.32,307.78,89.49z"/>
</g>
<g>
</g>
<g>
</g>
<g>
</g>
<g>
</g>
<g>
</g>
<g>
</g>
<g>
</g>
<g>
</g>
<g>
</g>
<g>
</g>
<g>
</g>
<g>
</g>
<g>
</g>
<g>
</g>
<g>
</g>
</svg>
